<svg xmlns="http://www.w3.org/2000/svg">
  <defs>
    <symbol id="airplane" fill="none" viewBox="0 0 24 24" stroke-width="1.5" stroke="currentColor">
      <path stroke-linecap="round" stroke-linejoin="round"
        d="M6 12 3.269 3.125A59.769 59.769 0 0 1 21.485 12 59.768 59.768 0 0 1 3.27 20.875L5.999 12Zm0 0h7.5" />
    </symbol>
    <symbol id="chat" fill="none" viewBox="0 0 24 24" stroke-width="1.5" stroke="currentColor">
      <path stroke-linecap="round" stroke-linejoin="round"
        d="M20.25 8.511c.884.284 1.5 1.128 1.5 2.097v4.286c0 1.136-.847 2.1-1.98 2.193-.34.027-.68.052-1.02.072v3.091l-3-3c-1.354 0-2.694-.055-4.02-.163a2.115 2.115 0 0 1-.825-.242m9.345-8.334a2.126 2.126 0 0 0-.476-.095 48.64 48.64 0 0 0-8.048 0c-1.131.094-1.976 1.057-1.976 2.192v4.286c0 .837.46 1.58 1.155 1.951m9.345-8.334V6.637c0-1.621-1.152-3.026-2.76-3.235A48.455 48.455 0 0 0 11.25 3c-2.115 0-4.198.137-6.24.402-1.608.209-2.76 1.614-2.76 3.235v6.226c0 1.621 1.152 3.026 2.76 3.235.577.075 1.157.14 1.74.194V21l4.155-4.155" />
    </symbol>
    <symbol id="cli" fill="none" viewBox="0 0 24 24" stroke-width="1.5" stroke="currentColor">
      <path stroke-linecap="round" stroke-linejoin="round"
        d="m6.75 7.5 3 2.25-3 2.25m4.5 0h3m-9 8.25h13.5A2.25 2.25 0 0 0 21 18V6a2.25 2.25 0 0 0-2.25-2.25H5.25A2.25 2.25 0 0 0 3 6v12a2.25 2.25 0 0 0 2.25 2.25Z" />
    </symbol>
    <symbol id="heart" fill="none" viewBox="0 0 24 24" stroke-width="1.5" stroke="currentColor">
      <path stroke-linecap="round" stroke-linejoin="round"
        d="M21 8.25c0-2.485-2.099-4.5-4.688-4.5-1.935 0-3.597 1.126-4.312 2.733-.715-1.607-2.377-2.733-4.313-2.733C5.1 3.75 3 5.765 3 8.25c0 7.22 9 12 9 12s9-4.78 9-12Z" />
    </symbol>
    <symbol id="pencil" fill="none" viewBox="0 0 24 24" stroke-width="1.5" stroke="currentColor">
      <path stroke-linecap="round" stroke-linejoin="round"
        d="m16.862 4.487 1.687-1.688a1.875 1.875 0 1 1 2.652 2.652L10.582 16.07a4.5 4.5 0 0 1-1.897 1.13L6 18l.8-2.685a4.5 4.5 0 0 1 1.13-1.897l8.932-8.931Zm0 0L19.5 7.125M18 14v4.75A2.25 2.25 0 0 1 15.75 21H5.25A2.25 2.25 0 0 1 3 18.75V8.25A2.25 2.25 0 0 1 5.25 6H10" />
    </symbol>
    <symbol id="trash" fill="none" viewBox="0 0 24 24" stroke-width="1.5" stroke="currentColor">
      <path stroke-linecap="round" stroke-linejoin="round"
        d="m14.74 9-.346 9m-4.788 0L9.26 9m9.968-3.21c.342.052.682.107 1.022.166m-1.022-.165L18.16 19.673a2.25 2.25 0 0 1-2.244 2.077H8.084a2.25 2.25 0 0 1-2.244-2.077L4.772 5.79m14.456 0a48.108 48.108 0 0 0-3.478-.397m-12 .562c.34-.059.68-.114 1.022-.165m0 0a48.11 48.11 0 0 1 3.478-.397m7.5 0v-.916c0-1.18-.91-2.164-2.09-2.201a51.964 51.964 0 0 0-3.32 0c-1.18.037-2.09 1.022-2.09 2.201v.916m7.5 0a48.667 48.667 0 0 0-7.5 0" />
    </symbol>
    <symbol id="user" fill="none" viewBox="0 0 24 24" stroke-width="1.5" stroke="currentColor">
      <path stroke-linecap="round" stroke-linejoin="round"
        d="M17.982 18.725A7.488 7.488 0 0 0 12 15.75a7.488 7.488 0 0 0-5.982 2.975m11.963 0a9 9 0 1 0-11.963 0m11.963 0A8.966 8.966 0 0 1 12 21a8.966 8.966 0 0 1-5.982-2.275M15 9.75a3 3 0 1 1-6 0 3 3 0 0 1 6 0Z" />
    </symbol>
    <symbol id="cross" fill="none" viewBox="0 0 24 24" stroke-width="1.5" stroke="currentColor">
      <path stroke-linecap="round" stroke-linejoin="round" d="M6 18 18 6M6 6l12 12" />
    </symbol>
    <symbol id="puzzle" viewBox="0 0 24 24" fill="currentColor">
      <path
        d="M11.25 5.337c0-.355-.186-.676-.401-.959a1.647 1.647 0 0 1-.349-1.003c0-1.036 1.007-1.875 2.25-1.875S15 2.34 15 3.375c0 .369-.128.713-.349 1.003-.215.283-.401.604-.401.959 0 .332.278.598.61.578 1.91-.114 3.79-.342 5.632-.676a.75.75 0 0 1 .878.645 49.17 49.17 0 0 1 .376 5.452.657.657 0 0 1-.66.664c-.354 0-.675-.186-.958-.401a1.647 1.647 0 0 0-1.003-.349c-1.035 0-1.875 1.007-1.875 2.25s.84 2.25 1.875 2.25c.369 0 .713-.128 1.003-.349.283-.215.604-.401.959-.401.31 0 .557.262.534.571a48.774 48.774 0 0 1-.595 4.845.75.75 0 0 1-.61.61c-1.82.317-3.673.533-5.555.642a.58.58 0 0 1-.611-.581c0-.355.186-.676.401-.959.221-.29.349-.634.349-1.003 0-1.035-1.007-1.875-2.25-1.875s-2.25.84-2.25 1.875c0 .369.128.713.349 1.003.215.283.401.604.401.959a.641.641 0 0 1-.658.643 49.118 49.118 0 0 1-4.708-.36.75.75 0 0 1-.645-.878c.293-1.614.504-3.257.629-4.924A.53.53 0 0 0 5.337 15c-.355 0-.676.186-.959.401-.29.221-.634.349-1.003.349-1.036 0-1.875-1.007-1.875-2.25s.84-2.25 1.875-2.25c.369 0 .713.128 1.003.349.283.215.604.401.959.401a.656.656 0 0 0 .659-.663 47.703 47.703 0 0 0-.31-4.82.75.75 0 0 1 .83-.832c1.343.155 2.703.254 4.077.294a.64.64 0 0 0 .657-.642Z" />
    </symbol>
  </defs>
</svg>
